<?xml version="1.0" standalone="no"?>
<!DOCTYPE svg PUBLIC "-//W3C//DTD SVG 20010904//EN"
 "http://www.w3.org/TR/2001/REC-SVG-20010904/DTD/svg10.dtd">
<svg version="1.0" xmlns="http://www.w3.org/2000/svg"
 width="162.000000pt" height="161.000000pt" viewBox="0 0 162.000000 161.000000"
 preserveAspectRatio="xMidYMid meet">
<metadata>
Created by potrace 1.16, written by Peter Selinger 2001-2019
</metadata>
<g transform="translate(0.000000,161.000000) scale(0.100000,-0.100000)"
fill="#000000" stroke="none">
<path d="M585 1591 c-140 -40 -273 -120 -370 -222 -75 -78 -94 -106 -139 -196
-100 -199 -103 -495 -7 -707 95 -210 288 -373 513 -436 93 -26 369 -29 463 -5
82 21 177 61 258 109 74 44 197 143 197 159 0 10 -228 259 -242 265 -5 2 -31
-17 -60 -42 -57 -52 -166 -108 -246 -126 -244 -56 -470 106 -513 368 -39 237
124 465 358 501 123 19 291 -41 400 -144 32 -30 61 -54 64 -53 10 4 239 281
239 289 0 11 -87 85 -147 125 -72 48 -184 98 -259 118 -90 23 -425 21 -509 -3z"/>
</g>
</svg>
